<svg width="232" height="73" viewBox="0 0 232 73" fill="none" xmlns="http://www.w3.org/2000/svg">
<path d="M37.9782 -4.89165e-07C26.168 -9.98749e-08 20.2629 9.47704e-08 16.1233 3.00761C14.7864 3.97894 13.6106 5.15465 12.6393 6.49157C9.63171 10.6312 9.63171 16.5363 9.63171 28.3465L9.63171 39.059C9.63171 40.418 9.63171 41.0974 9.27111 41.534C9.15543 41.6741 9.0164 41.7931 8.86015 41.8857C8.37309 42.1745 7.70178 42.0696 6.35916 41.8596L4.18456 41.5196C2.26668 41.2197 1.30773 41.0698 0.909 41.4904C0.786014 41.6201 0.69638 41.7777 0.647808 41.9498C0.490333 42.5075 1.10962 43.2549 2.34819 44.7496L8.11705 51.7115C8.23412 51.8528 8.29266 51.9234 8.34757 51.9938C9.14216 53.0122 9.5911 54.2576 9.62909 55.5488C9.63171 55.6381 9.63171 55.7298 9.63171 55.9133C9.63171 57.1563 9.63171 57.7779 9.6668 58.3026C10.193 66.1721 16.4596 72.4387 24.3291 72.9649C24.8539 73 25.4754 73 26.7184 73L203.654 73C215.464 73 221.369 73 225.508 69.9924C226.845 69.0211 228.021 67.8453 228.992 66.5084C232 62.3688 232 56.4637 232 44.6535L232 28.3464C232 16.5363 232 10.6312 228.992 6.49156C228.021 5.15464 226.845 3.97893 225.508 3.0076C221.369 -6.53414e-06 215.464 -6.33949e-06 203.654 -5.9502e-06L37.9782 -4.89165e-07Z" fill="#F7F7FA"/>
</svg>
